<?xml version="1.0" standalone="no"?>
<!DOCTYPE svg PUBLIC "-//W3C//DTD SVG 20010904//EN"
 "http://www.w3.org/TR/2001/REC-SVG-20010904/DTD/svg10.dtd">
<svg version="1.0" xmlns="http://www.w3.org/2000/svg"
 width="1024.000000pt" height="1024.000000pt" viewBox="0 0 1024.000000 1024.000000"
 preserveAspectRatio="xMidYMid meet">

<g transform="translate(0.000000,1024.000000) scale(0.100000,-0.100000)"
fill="#000000" stroke="none">
<path d="M5220 7824 c-252 -31 -494 -149 -667 -326 l-62 -63 -3 -150 -3 -150
75 -3 75 -3 45 62 c59 81 171 185 251 232 157 92 372 129 549 93 225 -46 389
-151 528 -338 l63 -85 52 14 c73 20 244 13 318 -13 142 -50 269 -159 332 -286
39 -78 67 -171 67 -225 l0 -33 -371 0 c-334 0 -371 -2 -365 -16 3 -9 6 -51 6
-95 l0 -79 514 0 514 0 8 67 c15 148 -14 332 -75 466 -70 155 -209 313 -348
396 -128 76 -321 131 -460 131 l-55 0 -77 76 c-93 93 -175 153 -281 205 -109
54 -192 84 -281 103 -76 15 -286 27 -349 20z"/>
<path d="M2450 7200 l0 -419 383 -3 c210 -2 633 -2 940 0 l557 3 0 419 0 420
-330 0 -330 0 -2 -351 -3 -351 -114 98 c-62 55 -126 109 -141 121 l-28 23
-133 -115 c-74 -63 -137 -115 -141 -115 -5 0 -8 155 -8 345 l0 345 -325 0
-325 0 0 -420z"/>
<path d="M5020 6304 l0 -366 -22 6 c-90 24 -499 126 -507 126 -8 0 -11 -115
-11 -380 l0 -380 -1105 0 -1105 0 -2 379 -3 378 -80 -26 -80 -26 -5 -352 -5
-351 -135 -1 -135 0 -28 -32 c-24 -26 -28 -37 -23 -63 4 -17 15 -40 27 -51 19
-20 36 -20 879 -25 843 -5 860 -5 879 -25 51 -51 27 -124 -47 -145 -24 -6
-335 -10 -885 -10 l-848 0 -24 -26 c-33 -35 -33 -84 -1 -121 l24 -28 705 -5
c552 -4 707 -8 719 -18 30 -24 42 -69 28 -102 -25 -61 -20 -60 -412 -60 l-358
0 0 -140 0 -140 1715 0 1715 0 0 1175 0 1175 -435 0 -435 0 0 -366z"/>
<path d="M1975 6518 c-213 -275 -276 -358 -272 -358 26 0 545 134 554 143 14
14 158 301 168 335 l6 22 -173 0 -174 0 -109 -142z"/>
<path d="M4003 6653 l-333 -3 -2 -335 -3 -336 -115 96 c-63 53 -127 105 -142
116 l-26 19 -134 -110 c-73 -60 -136 -110 -140 -110 -5 0 -8 149 -8 330 l0
330 -325 0 -325 0 0 -585 0 -585 940 0 940 0 0 582 c0 320 4 578 9 573 4 -6
34 -71 66 -145 94 -221 79 -202 181 -224 49 -11 154 -37 234 -58 79 -21 150
-37 157 -36 12 3 -75 160 -240 436 l-31 52 -186 -2 c-102 -2 -335 -4 -517 -5z"/>
<path d="M6110 4960 l0 -1160 -37 -1 c-21 -1 -1001 -2 -2178 -3 -1192 0 -2148
-5 -2158 -10 -27 -13 -49 -63 -42 -96 4 -16 20 -41 37 -55 l30 -25 356 0 357
0 -3 -240 -3 -240 320 0 320 0 6 38 c4 20 27 78 51 127 142 289 456 470 789
452 253 -14 470 -124 627 -318 55 -68 122 -200 133 -261 l7 -38 664 0 664 0 0
28 c0 47 37 184 69 254 83 185 234 345 408 432 146 73 291 103 452 93 363 -23
676 -261 790 -603 17 -50 33 -116 37 -147 l7 -57 368 0 369 0 0 721 0 721 -79
207 c-192 503 -477 1258 -494 1309 l-10 32 -929 0 -928 0 0 -1160z m1512 774
c72 -6 75 -8 87 -38 21 -57 179 -477 281 -750 55 -149 100 -276 100 -283 0
-11 -123 -13 -650 -13 l-650 0 0 545 0 545 378 0 c209 0 413 -3 454 -6z m-513
-1225 c31 -11 61 -52 61 -83 0 -8 -12 -28 -26 -45 l-26 -31 -153 0 c-84 0
-161 3 -170 6 -17 7 -45 54 -45 78 0 8 12 28 26 45 l25 30 122 4 c67 1 129 4
138 5 9 1 30 -3 48 -9z"/>
<path d="M2107 4594 c-4 -4 -7 -139 -7 -301 l0 -293 85 0 85 0 -2 298 -3 297
-75 3 c-42 1 -79 0 -83 -4z"/>
<path d="M2450 4070 l0 -70 1720 0 1720 0 0 70 0 70 -1720 0 -1720 0 0 -70z"/>
<path d="M6845 3694 c-11 -2 -45 -9 -75 -15 -184 -37 -354 -169 -438 -340 -59
-122 -76 -193 -75 -325 1 -96 5 -123 31 -197 40 -116 83 -186 167 -272 130
-133 291 -191 505 -182 170 6 294 56 412 165 144 134 219 303 219 497 0 316
-195 570 -496 650 -61 16 -213 28 -250 19z m190 -434 c155 -69 195 -272 80
-408 -84 -100 -257 -107 -364 -15 -58 49 -81 101 -81 183 0 195 189 319 365
240z"/>
<path d="M3755 3674 c-115 -28 -218 -87 -308 -177 -88 -87 -127 -151 -168
-272 -21 -61 -24 -89 -24 -210 0 -123 3 -148 24 -204 53 -146 166 -287 285
-360 30 -18 93 -46 138 -62 73 -25 97 -29 198 -29 155 0 244 23 365 94 107 62
220 197 274 324 85 204 48 469 -92 650 -85 111 -245 215 -377 246 -81 19 -235
19 -315 0z m275 -422 c160 -78 187 -292 52 -414 -105 -95 -269 -88 -360 17
-52 58 -66 94 -66 166 0 131 82 234 207 258 57 12 102 4 167 -27z"/>
<path d="M1706 3419 c-15 -12 -26 -30 -26 -45 0 -32 25 -80 45 -88 31 -11 542
-7 569 5 50 23 49 111 -3 138 -13 7 -115 11 -289 11 -257 0 -270 -1 -296 -21z"/>
<path d="M5652 2960 l-354 -5 -24 -28 c-13 -15 -24 -35 -24 -43 0 -24 28 -71
45 -78 9 -3 199 -6 422 -6 l405 0 -28 48 c-16 26 -37 64 -47 85 -11 20 -24 36
-31 35 -6 -1 -170 -5 -364 -8z"/>
<path d="M1920 2940 c-45 -45 -33 -112 25 -135 29 -13 131 -15 620 -15 322 0
585 3 585 6 0 3 -21 41 -47 84 l-48 79 -557 1 c-543 0 -559 -1 -578 -20z"/>
<path d="M5610 2640 c-409 -4 -540 -8 -557 -18 -42 -24 -42 -93 -1 -132 21
-20 33 -20 621 -20 478 0 597 3 589 13 -5 6 -34 46 -63 87 l-54 75 -535 -5z"/>
<path d="M2390 2627 c-55 -28 -64 -94 -18 -137 21 -19 34 -20 465 -20 l443 0
-63 85 -62 85 -370 0 c-276 0 -376 -3 -395 -13z"/>
</g>
</svg>
